<svg width="291" height="301" viewBox="0 0 291 301" fill="none" xmlns="http://www.w3.org/2000/svg">
    <path d="M21.3071 98.2497L42.8314 129.233L110.331 129.18L123.831 129.169L123.831 128.669L91.2611 39.6947L77.2304 0.705706L97.7304 0.689595L143.28 63.6538L189.831 128.617L189.831 129.117L232.831 129.083C239.998 128.744 258.232 129.463 273.836 135.051C289.44 140.639 291.013 148.704 289.849 152.039C288.519 156.04 281.559 164.645 264.361 167.059L263.862 167.559C258.363 168.73 244.264 171.074 231.864 171.084L189.864 171.117L142.417 238.155L98.4654 299.689L97.9658 300.19L77.4658 300.206L106.902 218.682L123.864 171.169L42.8644 171.233L21.3888 202.25L1.38881 202.265L22.3479 150.249L1.30707 98.2654L21.3071 98.2497Z" fill="#D9D9D9"/>
    <path d="M231.864 171.084C244.264 171.074 258.363 168.73 263.862 167.559L264.361 167.059C281.559 164.645 288.519 156.04 289.849 152.039C291.013 148.704 289.44 140.639 273.836 135.051C258.232 129.463 239.998 128.744 232.831 129.083L189.831 129.117L189.831 128.617L143.28 63.6538L97.7304 0.689595L77.2304 0.705706L91.2611 39.6947L123.831 128.669L123.831 129.169L110.331 129.18L42.8314 129.233L21.3071 98.2497L1.30707 98.2654L22.3479 150.249L1.38881 202.265L21.3888 202.25L42.8644 171.233L123.864 171.169L106.902 218.682L77.4658 300.206L97.9658 300.19L98.4654 299.689L142.417 238.155L189.864 171.117M231.864 171.084C219.464 171.094 198.698 171.11 189.864 171.117M231.864 171.084L189.864 171.117" stroke="#B8B8B8"/>
</svg>
